<svg id="buysys" xmlns="http://www.w3.org/2000/svg" width="61.264" height="17" viewBox="0 0 61.264 17">
  <path id="Path_24" data-name="Path 24" d="M214.365,376.609a3.747,3.747,0,0,1-2.988-1.432v1.082h-2.586V363.3h2.621v5.1a3.653,3.653,0,0,1,2.953-1.432c2.5,0,4.245,1.991,4.245,4.822S216.846,376.609,214.365,376.609Zm-3.058-4.822a2.344,2.344,0,1,0,2.341-2.463A2.328,2.328,0,0,0,211.308,371.787Z" transform="translate(-208.792 -363.296)"/>
  <path id="Path_25" data-name="Path 25" d="M222.919,375v-1.222a3.364,3.364,0,0,1-2.848,1.572,3.4,3.4,0,0,1-3.371-3.7v-5.591h2.621v5.136a1.661,1.661,0,0,0,1.659,1.851,1.88,1.88,0,0,0,1.869-1.956v-5.032h2.621V375Z" transform="translate(-205.18 -362.036)"/>
  <path id="Path_26" data-name="Path 26" d="M224.925,376.781a3.73,3.73,0,0,0,1.066.176c1.117,0,1.554-.787,1.956-1.87l-4.227-9.032h2.865l2.428,5.766,1.991-5.766h2.726l-3.46,9.259c-.838,2.306-1.8,3.722-3.616,3.722a5.15,5.15,0,0,1-1.731-.315Z" transform="translate(-201.974 -362.036)"/>
  <path id="Path_27" data-name="Path 27" d="M235.517,375.5c-2.411,0-4.159-1.414-4.141-3.371h2.219c0,.89.822,1.519,1.958,1.519.96,0,1.659-.454,1.659-1.049,0-.75-1.012-.96-2.1-1.065-1.991-.245-3.651-.559-3.651-2.743,0-1.748,1.659-3.005,3.843-3.005,2.393,0,4.123,1.292,4.123,3.093h-2.306c0-.734-.785-1.241-1.834-1.241-.8,0-1.451.42-1.467,1.014,0,.594.785.769,1.8.927,1.817.245,4.105.61,4.105,2.707C239.727,374.16,238.015,375.5,235.517,375.5Z" transform="translate(-198.478 -362.156)" fill="#fac18b"/>
  <path id="Path_28" data-name="Path 28" d="M238.665,376.781a3.73,3.73,0,0,0,1.066.176c1.117,0,1.554-.787,1.956-1.87l-4.229-9.032h2.865l2.43,5.766,1.991-5.766h2.726l-3.46,9.259c-.839,2.306-1.8,3.722-3.616,3.722a5.15,5.15,0,0,1-1.731-.315Z" transform="translate(-195.699 -362.036)" fill="#fac18b"/>
  <path id="Path_29" data-name="Path 29" d="M249.257,375.5c-2.411,0-4.159-1.414-4.141-3.371h2.219c0,.89.822,1.519,1.956,1.519.961,0,1.661-.454,1.661-1.049,0-.75-1.014-.96-2.1-1.065-1.993-.245-3.652-.559-3.652-2.743,0-1.748,1.659-3.005,3.844-3.005,2.393,0,4.123,1.292,4.123,3.093h-2.306c0-.734-.787-1.241-1.834-1.241-.8,0-1.451.42-1.468,1.014,0,.594.787.769,1.8.927,1.817.245,4.105.61,4.105,2.707C253.466,374.16,251.755,375.5,249.257,375.5Z" transform="translate(-192.202 -362.156)" fill="#fac18b"/>
</svg>
