<svg xmlns="http://www.w3.org/2000/svg" width="146.617" height="24.57" viewBox="0 0 146.617 24.57">
  <g id="dalimansys_whitetextlogo" transform="translate(-146.308 -308.93)">
    <g id="Group_20" data-name="Group 20" transform="translate(146.308 308.93)">
      <path id="Path_5" data-name="Path 5" d="M166.5,308.975v18.747h-3.79V308.975Z" transform="translate(-128.155 -308.88)" fill="#fff"/>
      <path id="Path_6" data-name="Path 6" d="M152.447,314.237a5.248,5.248,0,0,1,4.27,2.071V308.93h3.79v18.749h-3.739v-1.567a5.342,5.342,0,0,1-4.321,2.073c-3.588,0-6.139-2.88-6.139-6.975S148.859,314.237,152.447,314.237ZM150.1,321.21a3.39,3.39,0,1,0,3.385-3.562A3.369,3.369,0,0,0,150.1,321.21Z" transform="translate(-146.308 -308.93)" fill="#fff"/>
      <path id="Path_7" data-name="Path 7" d="M164.92,311.955h3.792v12.937H164.92V323.1a5.242,5.242,0,0,1-4.394,2.3c-3.638,0-6.189-2.88-6.189-6.975s2.551-6.973,6.189-6.973a5.245,5.245,0,0,1,4.394,2.3Zm-.023,6.467a3.4,3.4,0,1,0-3.388,3.64A3.405,3.405,0,0,0,164.9,318.422Z" transform="translate(-137.424 -306.142)" fill="#fff"/>
      <g id="Group_19" data-name="Group 19" transform="translate(42.038)">
        <path id="Path_8" data-name="Path 8" d="M166.263,314.989a6.318,6.318,0,0,0,2.821-1.243,2.548,2.548,0,0,0,.969-2.016v-2.8h-3.79Z" transform="translate(-166.263 -308.93)" fill="#f48401"/>
        <g id="Group_18" data-name="Group 18" transform="translate(0 6.057)">
          <path id="Path_9" data-name="Path 9" d="M167.449,312.846l-.961.162a2.585,2.585,0,0,0-.225.992v10.5h3.79V311.805A7.366,7.366,0,0,1,167.449,312.846Z" transform="translate(-166.263 -311.805)" fill="#fff"/>
        </g>
      </g>
    </g>
    <path id="Path_10" data-name="Path 10" d="M169.684,324.885V311.948h3.64v1.54a4.361,4.361,0,0,1,3.788-2.046,4.553,4.553,0,0,1,4.169,2.3,5.061,5.061,0,0,1,4.346-2.3c2.93,0,4.978,2.2,4.978,5.3v8.138h-3.79v-7.378a2.518,2.518,0,0,0-2.4-2.73,2.484,2.484,0,0,0-2.45,2.73v7.378h-3.79v-7.378c0-1.643-.91-2.73-2.324-2.73-1.441,0-2.376,1.087-2.376,2.73v7.378Z" transform="translate(25.869 2.78)" fill="#427af4"/>
    <path id="Path_11" data-name="Path 11" d="M191.369,311.948h3.792v12.937h-3.792V323.09a5.241,5.241,0,0,1-4.394,2.3c-3.638,0-6.189-2.88-6.189-6.975s2.551-6.973,6.189-6.973a5.245,5.245,0,0,1,4.394,2.3Zm-.023,6.467a3.4,3.4,0,1,0-3.387,3.64A3.405,3.405,0,0,0,191.346,318.415Z" transform="translate(38.154 2.78)" fill="#427af4"/>
    <path id="Path_12" data-name="Path 12" d="M192.862,311.948v1.742a4.9,4.9,0,0,1,4.116-2.248c2.907,0,4.877,2.248,4.877,5.357v8.085h-3.79v-7.43a2.4,2.4,0,0,0-2.4-2.678,2.72,2.72,0,0,0-2.7,2.829v7.279h-3.79V311.948Z" transform="translate(47.437 2.78)" fill="#427af4"/>
    <path id="Path_13" data-name="Path 13" d="M202.42,325.465c-3.487,0-6.015-2.046-5.987-4.875h3.206c0,1.287,1.188,2.2,2.831,2.2,1.388,0,2.4-.657,2.4-1.517,0-1.087-1.464-1.388-3.031-1.54-2.88-.354-5.279-.809-5.279-3.967,0-2.526,2.4-4.346,5.557-4.346,3.461,0,5.962,1.871,5.962,4.472h-3.335c0-1.062-1.135-1.793-2.652-1.793-1.163,0-2.1.6-2.121,1.464,0,.857,1.135,1.11,2.6,1.34,2.627.354,5.937.885,5.937,3.914C208.508,323.521,206.033,325.465,202.42,325.465Z" transform="translate(55.471 2.753)" fill="#427af4"/>
    <path id="Path_14" data-name="Path 14" d="M204.259,327.2a5.536,5.536,0,0,0,1.542.251c1.616,0,2.248-1.136,2.829-2.7l-6.114-13.061h4.142l3.514,8.338,2.88-8.338h3.942l-5,13.39c-1.213,3.335-2.6,5.383-5.229,5.383a7.449,7.449,0,0,1-2.5-.455Z" transform="translate(62.204 3.046)" fill="#427af4"/>
    <path id="Path_15" data-name="Path 15" d="M216.159,325.465c-3.487,0-6.012-2.046-5.987-4.875h3.208c0,1.287,1.188,2.2,2.829,2.2,1.39,0,2.4-.657,2.4-1.517,0-1.087-1.466-1.388-3.034-1.54-2.88-.354-5.279-.809-5.279-3.967,0-2.526,2.4-4.346,5.559-4.346,3.461,0,5.962,1.871,5.962,4.472h-3.335c0-1.062-1.138-1.793-2.654-1.793-1.161,0-2.1.6-2.121,1.464,0,.857,1.138,1.11,2.6,1.34,2.627.354,5.939.885,5.939,3.914C222.25,323.521,219.772,325.465,216.159,325.465Z" transform="translate(70.676 2.753)" fill="#427af4"/>
  </g>
</svg>
