<svg xmlns="http://www.w3.org/2000/svg" xmlns:xlink="http://www.w3.org/1999/xlink" width="240.83" height="36.695" viewBox="0 0 240.83 36.695">
  <defs>
    <clipPath id="clip-path">
      <rect id="Rectangle_23" data-name="Rectangle 23" width="115.512" height="24.57" fill="#fff"/>
    </clipPath>
  </defs>
  <g id="invosys_purchsys" transform="translate(-20 -73)">
    <g id="purchsys" transform="translate(145.318 79)">
      <g id="Group_32" data-name="Group 32" transform="translate(0 0)" clip-path="url(#clip-path)">
        <path id="Path_30" data-name="Path 30" d="M8.056,16.458a5.28,5.28,0,0,1-4.268-2.07v7.374H0V3.024H3.737V4.589a5.415,5.415,0,0,1,4.319-2.07c3.586,0,6.136,2.878,6.136,6.969s-2.525,6.969-6.136,6.969M10.4,9.488a3.388,3.388,0,1,0-6.767,0,3.388,3.388,0,1,0,6.767,0" transform="translate(0 2.784)" fill="#fff"/>
        <path id="Path_31" data-name="Path 31" d="M16.9,15.688V13.922a4.864,4.864,0,0,1-4.116,2.272c-2.9,0-4.874-2.249-4.874-5.354V2.758h3.788v7.424a2.4,2.4,0,0,0,2.4,2.678,2.721,2.721,0,0,0,2.7-2.83V2.758h3.788v12.93Z" transform="translate(8.742 3.048)" fill="#fff"/>
        <path id="Path_32" data-name="Path 32" d="M19.128,3.01V4.652A4.074,4.074,0,0,1,22.588,2.53a4.223,4.223,0,0,1,1.541.328V6.217a5.951,5.951,0,0,0-2.122-.455c-1.642,0-2.727,1.364-2.727,3.308V15.94H15.492V3.01Z" transform="translate(17.128 2.796)" fill="#fff"/>
        <path id="Path_33" data-name="Path 33" d="M34.025,7.645,30.49,8.1a3.161,3.161,0,0,0-3.055-2.4c-1.844,0-3.283,1.59-3.283,3.786s1.413,3.788,3.283,3.788a3.168,3.168,0,0,0,3.08-2.4l3.535.455a6.483,6.483,0,0,1-6.641,5.127,6.788,6.788,0,0,1-7.045-6.972,6.773,6.773,0,0,1,7.045-6.969c3.384,0,6.211,2.148,6.616,5.127" transform="translate(22.514 2.783)" fill="#fff"/>
        <path id="Path_34" data-name="Path 34" d="M31.915,0V7.273A4.787,4.787,0,0,1,35.88,5.3c2.979,0,4.925,2.171,4.925,5.226v8.208H37.017V11.313a2.419,2.419,0,0,0-2.426-2.676,2.714,2.714,0,0,0-2.676,2.828v7.273H28.127V0Z" transform="translate(31.097 -0.001)" fill="#fff"/>
        <path id="Path_35" data-name="Path 35" d="M41.37,16.535c-3.483,0-6.009-2.045-5.982-4.872h3.2c0,1.287,1.188,2.2,2.828,2.2,1.39,0,2.4-.657,2.4-1.516,0-1.084-1.468-1.388-3.034-1.539-2.878-.354-5.277-.809-5.277-3.965,0-2.527,2.4-4.344,5.555-4.344,3.462,0,5.963,1.868,5.963,4.47H43.695c0-1.061-1.137-1.794-2.651-1.794-1.164,0-2.1.606-2.12,1.465,0,.859,1.133,1.112,2.6,1.339,2.628.354,5.936.882,5.936,3.912,0,2.7-2.476,4.647-6.087,4.647" transform="translate(39.124 2.758)" fill="#fac18b"/>
        <path id="Path_36" data-name="Path 36" d="M43.214,18.263a5.461,5.461,0,0,0,1.539.253c1.617,0,2.249-1.135,2.83-2.7L41.471,2.758h4.142l3.512,8.334L52,2.758h3.937l-5,13.385c-1.213,3.333-2.6,5.378-5.228,5.378a7.493,7.493,0,0,1-2.5-.453Z" transform="translate(45.849 3.048)" fill="#fac18b"/>
        <path id="Path_37" data-name="Path 37" d="M55.111,16.535c-3.485,0-6.009-2.045-5.984-4.872h3.207c0,1.287,1.188,2.2,2.828,2.2,1.39,0,2.4-.657,2.4-1.516,0-1.084-1.465-1.388-3.032-1.539-2.878-.354-5.277-.809-5.277-3.965,0-2.527,2.4-4.344,5.555-4.344,3.462,0,5.961,1.868,5.961,4.47H57.436c0-1.061-1.137-1.794-2.653-1.794-1.162,0-2.1.606-2.12,1.465,0,.859,1.135,1.112,2.6,1.339,2.626.354,5.936.882,5.936,3.912,0,2.7-2.476,4.647-6.087,4.647" transform="translate(54.314 2.758)" fill="#fac18b"/>
      </g>
    </g>
    <rect id="slash" width="2.457" height="40.954" transform="translate(136.765 73) rotate(30)" fill="#fff"/>
    <g id="invosys" transform="translate(20 79)">
      <g id="Group_22" data-name="Group 22">
        <path id="Path_16" data-name="Path 16" d="M208.966,351.617a6.255,6.255,0,0,0,2.8-1.233,2.527,2.527,0,0,0,.961-2v-2.777h-3.759Z" transform="translate(-208.966 -345.607)" fill="#f48421"/>
        <g id="Group_21" data-name="Group 21" transform="translate(0 6.008)">
          <path id="Path_17" data-name="Path 17" d="M210.143,349.514l-.955.163a2.543,2.543,0,0,0-.222.982v10.413h3.759v-12.59A7.307,7.307,0,0,1,210.143,349.514Z" transform="translate(-208.966 -348.482)" fill="#fff"/>
        </g>
      </g>
      <g id="Group_23" data-name="Group 23" transform="translate(7.259 5.4)">
        <path id="Path_18" data-name="Path 18" d="M216.1,348.717v1.728a4.863,4.863,0,0,1,4.085-2.23c2.882,0,4.835,2.23,4.835,5.312v8.02h-3.757v-7.368a2.385,2.385,0,0,0-2.382-2.656,2.7,2.7,0,0,0-2.681,2.806v7.218H212.44v-12.83Z" transform="translate(-212.44 -348.165)" fill="#fff"/>
        <path id="Path_19" data-name="Path 19" d="M223.826,361.286l-4.486-12.83h4.01l3.157,9.974,3.132-9.974h4.035l-4.486,12.83Z" transform="translate(-204.921 -347.903)" fill="#fff"/>
        <path id="Path_20" data-name="Path 20" d="M240.873,355.132c0,4.085-2.909,6.917-7.142,6.917-4.213,0-7.119-2.831-7.119-6.917,0-4.11,2.907-6.917,7.119-6.917C237.964,348.215,240.873,351.022,240.873,355.132Zm-3.784,0a3.356,3.356,0,1,0-3.358,3.609A3.349,3.349,0,0,0,237.089,355.132Z" transform="translate(-196.999 -348.165)" fill="#fff"/>
        <path id="Path_21" data-name="Path 21" d="M240.448,362.125c-3.458,0-5.966-2.029-5.941-4.838h3.182c0,1.279,1.179,2.182,2.808,2.182,1.377,0,2.38-.652,2.38-1.5,0-1.076-1.454-1.379-3.007-1.528-2.857-.351-5.239-.8-5.239-3.937,0-2.505,2.382-4.309,5.515-4.309,3.433,0,5.914,1.854,5.914,4.434h-3.308c0-1.051-1.126-1.778-2.631-1.778-1.153,0-2.081.6-2.1,1.454,0,.85,1.126,1.1,2.581,1.327,2.606.351,5.889.878,5.889,3.885C246.487,360.2,244.032,362.125,240.448,362.125Z" transform="translate(-188.395 -348.191)" fill="#9bdef7"/>
        <path id="Path_22" data-name="Path 22" d="M242.321,363.841a5.343,5.343,0,0,0,1.527.251c1.6,0,2.232-1.126,2.809-2.681l-6.066-12.956h4.11l3.486,8.271,2.857-8.271h3.908l-4.961,13.282c-1.2,3.308-2.581,5.339-5.189,5.339a7.384,7.384,0,0,1-2.48-.451Z" transform="translate(-181.766 -347.903)" fill="#9bdef7"/>
        <path id="Path_23" data-name="Path 23" d="M254.186,362.125c-3.456,0-5.964-2.029-5.939-4.838h3.183c0,1.279,1.179,2.182,2.806,2.182,1.379,0,2.382-.652,2.382-1.5,0-1.076-1.454-1.379-3.009-1.528-2.857-.351-5.237-.8-5.237-3.937,0-2.505,2.38-4.309,5.515-4.309,3.433,0,5.914,1.854,5.914,4.434h-3.308c0-1.051-1.128-1.778-2.631-1.778-1.154,0-2.081.6-2.106,1.454,0,.85,1.128,1.1,2.583,1.327,2.606.351,5.889.878,5.889,3.885C260.227,360.2,257.772,362.125,254.186,362.125Z" transform="translate(-173.423 -348.191)" fill="#9bdef7"/>
      </g>
    </g>
  </g>
</svg>
