<svg id="invosys" xmlns="http://www.w3.org/2000/svg" width="65.077" height="17" viewBox="0 0 65.077 17">
  <g id="Group_22" data-name="Group 22">
    <path id="Path_16" data-name="Path 16" d="M208.966,349.765a4.327,4.327,0,0,0,1.936-.853,1.748,1.748,0,0,0,.665-1.384v-1.921h-2.6Z" transform="translate(-208.966 -345.607)" fill="#f48421"/>
    <g id="Group_21" data-name="Group 21" transform="translate(0 4.156)">
      <path id="Path_17" data-name="Path 17" d="M209.78,349.2l-.661.113a1.759,1.759,0,0,0-.153.679v7.2h2.6v-8.71A5.055,5.055,0,0,1,209.78,349.2Z" transform="translate(-208.966 -348.482)"/>
    </g>
  </g>
  <g id="Group_23" data-name="Group 23" transform="translate(5.022 3.736)">
    <path id="Path_18" data-name="Path 18" d="M214.971,348.562v1.2a3.36,3.36,0,0,1,6.172,2.132v5.549h-2.6v-5.1A1.65,1.65,0,0,0,216.9,350.5a1.866,1.866,0,0,0-1.855,1.942v4.993h-2.6v-8.877Z" transform="translate(-212.44 -348.18)"/>
    <path id="Path_19" data-name="Path 19" d="M222.444,357.332l-3.1-8.877h2.774l2.184,6.9,2.167-6.9h2.792l-3.1,8.877Z" transform="translate(-209.365 -348.073)"/>
    <path id="Path_20" data-name="Path 20" d="M236.478,353a4.936,4.936,0,1,1-4.941-4.785A4.639,4.639,0,0,1,236.478,353Zm-2.618,0a2.322,2.322,0,1,0-2.323,2.5A2.317,2.317,0,0,0,233.86,353Z" transform="translate(-206.124 -348.18)"/>
    <path id="Path_21" data-name="Path 21" d="M238.617,357.831c-2.393,0-4.128-1.4-4.11-3.347h2.2c0,.885.815,1.509,1.943,1.509.953,0,1.647-.451,1.647-1.041,0-.745-1.006-.954-2.08-1.057-1.976-.243-3.624-.555-3.624-2.724,0-1.733,1.648-2.981,3.815-2.981,2.375,0,4.091,1.282,4.091,3.068h-2.289c0-.727-.779-1.23-1.82-1.23-.8,0-1.44.416-1.456,1.006,0,.588.779.763,1.785.918,1.8.243,4.074.607,4.074,2.688C242.8,356.5,241.1,357.831,238.617,357.831Z" transform="translate(-202.605 -348.191)" fill="#9bdef7"/>
    <path id="Path_22" data-name="Path 22" d="M241.788,359.1a3.7,3.7,0,0,0,1.057.174c1.11,0,1.544-.779,1.943-1.855l-4.2-8.963h2.844l2.411,5.722,1.976-5.722h2.7l-3.432,9.189c-.833,2.289-1.785,3.694-3.59,3.694a5.108,5.108,0,0,1-1.716-.312Z" transform="translate(-199.893 -348.073)" fill="#9bdef7"/>
    <path id="Path_23" data-name="Path 23" d="M252.356,357.831c-2.391,0-4.126-1.4-4.109-3.347h2.2c0,.885.815,1.509,1.942,1.509.954,0,1.648-.451,1.648-1.041,0-.745-1.006-.954-2.082-1.057-1.976-.243-3.623-.555-3.623-2.724,0-1.733,1.647-2.981,3.815-2.981,2.375,0,4.091,1.282,4.091,3.068h-2.289c0-.727-.781-1.23-1.82-1.23-.8,0-1.44.416-1.457,1.006,0,.588.781.763,1.787.918,1.8.243,4.074.607,4.074,2.688C256.535,356.5,254.837,357.831,252.356,357.831Z" transform="translate(-196.481 -348.191)" fill="#9bdef7"/>
  </g>
</svg>
