<svg xmlns="http://www.w3.org/2000/svg" width="213.87" height="36.695" viewBox="0 0 213.87 36.695">
  <g id="invosys_buysys_login" transform="translate(-28 -103)">
    <g id="buysys" transform="translate(153.318 109)">
      <path id="Path_24" data-name="Path 24" d="M216.848,382.539a5.416,5.416,0,0,1-4.319-2.07v1.564h-3.737V363.3h3.788v7.374a5.28,5.28,0,0,1,4.268-2.07c3.611,0,6.136,2.878,6.136,6.969S220.434,382.539,216.848,382.539Zm-4.42-6.969a3.388,3.388,0,1,0,3.384-3.561A3.365,3.365,0,0,0,212.428,375.57Z" transform="translate(-208.792 -363.296)" fill="#fff"/>
      <path id="Path_25" data-name="Path 25" d="M225.689,378.983v-1.767a4.862,4.862,0,0,1-4.116,2.272c-2.9,0-4.872-2.247-4.872-5.352v-8.081h3.788v7.424a2.4,2.4,0,0,0,2.4,2.676,2.718,2.718,0,0,0,2.7-2.828v-7.273h3.788v12.928Z" transform="translate(-200.049 -360.246)" fill="#fff"/>
      <path id="Path_26" data-name="Path 26" d="M225.461,381.559a5.392,5.392,0,0,0,1.541.255c1.615,0,2.247-1.137,2.828-2.7l-6.11-13.055h4.142l3.51,8.334,2.878-8.334h3.94l-5,13.383c-1.211,3.333-2.6,5.38-5.226,5.38a7.444,7.444,0,0,1-2.5-.455Z" transform="translate(-192.288 -360.246)" fill="#fff"/>
      <path id="Path_27" data-name="Path 27" d="M237.361,379.831c-3.485,0-6.011-2.045-5.986-4.872h3.207c0,1.287,1.188,2.2,2.83,2.2,1.388,0,2.4-.657,2.4-1.516,0-1.084-1.463-1.388-3.03-1.539-2.878-.354-5.277-.809-5.277-3.965,0-2.527,2.4-4.344,5.555-4.344,3.459,0,5.959,1.868,5.959,4.47h-3.333c0-1.061-1.135-1.794-2.651-1.794-1.162,0-2.1.606-2.12,1.465,0,.859,1.135,1.112,2.6,1.339,2.626.354,5.934.882,5.934,3.912C243.446,377.888,240.972,379.831,237.361,379.831Z" transform="translate(-183.825 -360.538)" fill="#fac18b"/>
      <path id="Path_28" data-name="Path 28" d="M239.2,381.559a5.391,5.391,0,0,0,1.541.255c1.615,0,2.247-1.137,2.828-2.7l-6.113-13.055H241.6l3.512,8.334,2.878-8.334h3.94l-5,13.383c-1.213,3.333-2.6,5.38-5.226,5.38a7.443,7.443,0,0,1-2.5-.455Z" transform="translate(-177.098 -360.246)" fill="#fac18b"/>
      <path id="Path_29" data-name="Path 29" d="M251.1,379.831c-3.485,0-6.011-2.045-5.986-4.872h3.207c0,1.287,1.188,2.2,2.828,2.2,1.39,0,2.4-.657,2.4-1.516,0-1.084-1.465-1.388-3.03-1.539-2.88-.354-5.279-.809-5.279-3.965,0-2.527,2.4-4.344,5.557-4.344,3.46,0,5.959,1.868,5.959,4.47h-3.333c0-1.061-1.137-1.794-2.651-1.794-1.162,0-2.1.606-2.122,1.465,0,.859,1.137,1.112,2.6,1.339,2.626.354,5.934.882,5.934,3.912C257.186,377.888,254.712,379.831,251.1,379.831Z" transform="translate(-168.634 -360.538)" fill="#fac18b"/>
    </g>
    <rect id="slash" width="2.457" height="40.954" transform="translate(144.765 103) rotate(30)" fill="#fff"/>
    <g id="invosys" transform="translate(28 109)">
      <g id="Group_22" data-name="Group 22">
        <path id="Path_16" data-name="Path 16" d="M208.966,351.617a6.255,6.255,0,0,0,2.8-1.233,2.527,2.527,0,0,0,.961-2v-2.777h-3.759Z" transform="translate(-208.966 -345.607)" fill="#f48421"/>
        <g id="Group_21" data-name="Group 21" transform="translate(0 6.008)">
          <path id="Path_17" data-name="Path 17" d="M210.143,349.514l-.955.163a2.543,2.543,0,0,0-.222.982v10.413h3.759v-12.59A7.307,7.307,0,0,1,210.143,349.514Z" transform="translate(-208.966 -348.482)" fill="#fff"/>
        </g>
      </g>
      <g id="Group_23" data-name="Group 23" transform="translate(7.259 5.4)">
        <path id="Path_18" data-name="Path 18" d="M216.1,348.717v1.728a4.863,4.863,0,0,1,4.085-2.23c2.882,0,4.835,2.23,4.835,5.312v8.02h-3.757v-7.368a2.385,2.385,0,0,0-2.382-2.656,2.7,2.7,0,0,0-2.681,2.806v7.218H212.44v-12.83Z" transform="translate(-212.44 -348.165)" fill="#fff"/>
        <path id="Path_19" data-name="Path 19" d="M223.826,361.286l-4.486-12.83h4.01l3.157,9.974,3.132-9.974h4.035l-4.486,12.83Z" transform="translate(-204.921 -347.903)" fill="#fff"/>
        <path id="Path_20" data-name="Path 20" d="M240.873,355.132c0,4.085-2.909,6.917-7.142,6.917-4.213,0-7.119-2.831-7.119-6.917,0-4.11,2.907-6.917,7.119-6.917C237.964,348.215,240.873,351.022,240.873,355.132Zm-3.784,0a3.356,3.356,0,1,0-3.358,3.609A3.349,3.349,0,0,0,237.089,355.132Z" transform="translate(-196.999 -348.165)" fill="#fff"/>
        <path id="Path_21" data-name="Path 21" d="M240.448,362.125c-3.458,0-5.966-2.029-5.941-4.838h3.182c0,1.279,1.179,2.182,2.808,2.182,1.377,0,2.38-.652,2.38-1.5,0-1.076-1.454-1.379-3.007-1.528-2.857-.351-5.239-.8-5.239-3.937,0-2.505,2.382-4.309,5.515-4.309,3.433,0,5.914,1.854,5.914,4.434h-3.308c0-1.051-1.126-1.778-2.631-1.778-1.153,0-2.081.6-2.1,1.454,0,.85,1.126,1.1,2.581,1.327,2.606.351,5.889.878,5.889,3.885C246.487,360.2,244.032,362.125,240.448,362.125Z" transform="translate(-188.395 -348.191)" fill="#9bdef7"/>
        <path id="Path_22" data-name="Path 22" d="M242.321,363.841a5.343,5.343,0,0,0,1.527.251c1.6,0,2.232-1.126,2.809-2.681l-6.066-12.956h4.11l3.486,8.271,2.857-8.271h3.908l-4.961,13.282c-1.2,3.308-2.581,5.339-5.189,5.339a7.384,7.384,0,0,1-2.48-.451Z" transform="translate(-181.766 -347.903)" fill="#9bdef7"/>
        <path id="Path_23" data-name="Path 23" d="M254.186,362.125c-3.456,0-5.964-2.029-5.939-4.838h3.183c0,1.279,1.179,2.182,2.806,2.182,1.379,0,2.382-.652,2.382-1.5,0-1.076-1.454-1.379-3.009-1.528-2.857-.351-5.237-.8-5.237-3.937,0-2.505,2.38-4.309,5.515-4.309,3.433,0,5.914,1.854,5.914,4.434h-3.308c0-1.051-1.128-1.778-2.631-1.778-1.154,0-2.081.6-2.106,1.454,0,.85,1.128,1.1,2.583,1.327,2.606.351,5.889.878,5.889,3.885C260.227,360.2,257.772,362.125,254.186,362.125Z" transform="translate(-173.423 -348.191)" fill="#9bdef7"/>
      </g>
    </g>
  </g>
</svg>
