<svg xmlns="http://www.w3.org/2000/svg" xmlns:xlink="http://www.w3.org/1999/xlink" width="61.26" height="13.03" viewBox="0 0 61.26 13.03">
  <defs>
    <clipPath id="clip-path">
      <rect id="Rectangle_24" data-name="Rectangle 24" width="61.26" height="13.03" fill="none"/>
    </clipPath>
  </defs>
  <g id="purchsys" transform="translate(0 0)">
    <g id="Group_33" data-name="Group 33" transform="translate(0 0)" clip-path="url(#clip-path)">
      <path id="Path_38" data-name="Path 38" d="M4.272,9.911a2.8,2.8,0,0,1-2.263-1.1v3.911H0V2.787H1.982v.83a2.872,2.872,0,0,1,2.29-1.1c1.9,0,3.254,1.526,3.254,3.7s-1.339,3.7-3.254,3.7m1.245-3.7a1.8,1.8,0,1,0-3.589,0,1.8,1.8,0,1,0,3.589,0" transform="translate(0 0.293)"/>
      <path id="Path_39" data-name="Path 39" d="M12.675,9.615V8.679a2.58,2.58,0,0,1-2.183,1.2,2.607,2.607,0,0,1-2.585-2.84V2.758H9.916V6.7a1.274,1.274,0,0,0,1.273,1.42,1.443,1.443,0,0,0,1.433-1.5V2.758H14.63V9.615Z" transform="translate(0.922 0.321)"/>
      <path id="Path_40" data-name="Path 40" d="M17.42,2.785v.871A2.161,2.161,0,0,1,19.255,2.53a2.239,2.239,0,0,1,.817.174V4.485a3.156,3.156,0,0,0-1.126-.241c-.871,0-1.446.724-1.446,1.754V9.642H15.492V2.785Z" transform="translate(1.807 0.295)"/>
      <path id="Path_41" data-name="Path 41" d="M27.609,5.237l-1.875.241a1.676,1.676,0,0,0-1.62-1.272,1.844,1.844,0,0,0-1.741,2.008,1.836,1.836,0,0,0,1.741,2.009,1.68,1.68,0,0,0,1.634-1.272l1.875.241A3.438,3.438,0,0,1,24.1,9.911a3.6,3.6,0,0,1-3.736-3.7,3.592,3.592,0,0,1,3.736-3.7,3.373,3.373,0,0,1,3.509,2.719" transform="translate(2.376 0.293)"/>
      <path id="Path_42" data-name="Path 42" d="M30.136,0V3.857A2.624,2.624,0,0,1,34.85,5.584V9.937H32.842V6a1.283,1.283,0,0,0-1.286-1.419,1.439,1.439,0,0,0-1.419,1.5V9.937H28.127V0Z" transform="translate(3.281 0)"/>
      <path id="Path_43" data-name="Path 43" d="M38.56,9.941c-1.847,0-3.187-1.084-3.172-2.584h1.7c0,.682.63,1.165,1.5,1.165.737,0,1.274-.348,1.274-.8,0-.575-.778-.736-1.609-.816-1.526-.188-2.8-.429-2.8-2.1,0-1.34,1.272-2.3,2.946-2.3,1.836,0,3.162.99,3.162,2.371H39.793c0-.563-.6-.951-1.406-.951-.618,0-1.112.322-1.124.777s.6.59,1.378.71c1.394.188,3.148.468,3.148,2.075,0,1.434-1.313,2.464-3.228,2.464" transform="translate(4.128 0.291)" fill="#fac18b"/>
      <path id="Path_44" data-name="Path 44" d="M42.4,10.981a2.9,2.9,0,0,0,.816.134c.858,0,1.193-.6,1.5-1.433L41.471,2.758h2.2l1.863,4.42,1.526-4.42h2.088l-2.651,7.1c-.643,1.768-1.379,2.852-2.773,2.852a3.974,3.974,0,0,1-1.325-.24Z" transform="translate(4.838 0.321)" fill="#fac18b"/>
      <path id="Path_45" data-name="Path 45" d="M52.3,9.941c-1.848,0-3.187-1.084-3.174-2.584h1.7c0,.682.63,1.165,1.5,1.165.737,0,1.273-.348,1.273-.8,0-.575-.777-.736-1.608-.816-1.526-.188-2.8-.429-2.8-2.1,0-1.34,1.272-2.3,2.946-2.3,1.836,0,3.161.99,3.161,2.371H53.533c0-.563-.6-.951-1.407-.951-.616,0-1.111.322-1.124.777s.6.59,1.379.71c1.392.188,3.148.468,3.148,2.075,0,1.434-1.313,2.464-3.228,2.464" transform="translate(5.731 0.291)" fill="#fac18b"/>
    </g>
  </g>
</svg>
